# xmcd
# Track frame offsets:
# 150
# 15544
# 29973
# 44678
# 55645
# 70319
# 89030
# 98543
# 113448
# 125988
# 137654
# 152335
# 165135
# 180024
# 190661
# 204600
# 221198
# 239253
#
# Disc length: 3428 seconds
# Revision: 0
# Processed by: cddbd v1.5.1PL0 Copyright (c) Steve Scherf et al.
# Submitted via: VisiTrax 2.9.10.228 - For more info visit www.synapsa.com
#
DISCID=f20d6212
DTITLE=Bob Pigott - Tempest
DYEAR=2004
DGENRE=Australian Country
TTITLE0=Back Verandah
TTITLE1=Smooth Landing
TTITLE2=Sydney Song
TTITLE3=Shy Girl
TTITLE4=Alone With You
TTITLE5=The Bay
TTITLE6=Some Men
TTITLE7=Tired Of Thinking About You
TTITLE8=It's Just Love
TTITLE9=Sixteen Again
TTITLE10=Precious Little Girl
TTITLE11=Blue Waters
TTITLE12=Dad
TTITLE13=Lucky She Loves Me
TTITLE14=Sunday, Raining
TTITLE15=Rainy Day
TTITLE16=When The Party's Over
TTITLE17=This Song's Been Waiting For You
EXTD=Easy Listening Aussie Country. Bob's songs are based on life experienc
EXTD=e.\nBob hails from the Central Coast of New South Wales
EXTT0=
EXTT1=
EXTT2=
EXTT3=
EXTT4=
EXTT5=
EXTT6=
EXTT7=
EXTT8=
EXTT9=
EXTT10=
EXTT11=
EXTT12=
EXTT13=
EXTT14=
EXTT15=
EXTT16=
EXTT17=
PLAYORDER=
